<?xml version="1.0" encoding="utf-8"?>
<svg xmlns="http://www.w3.org/2000/svg">
<symbol id="arrow-left" viewBox="0 0 32 32">
<path d="M10.1 23C10.2863 22.8126 10.3908 22.5592 10.3908 22.295C10.3908 22.0308 10.2863 21.7774 10.1 21.59L5.50001 17H29.05C29.3152 17 29.5696 16.8946 29.7571 16.7071C29.9447 16.5196 30.05 16.2652 30.05 16C30.05 15.7348 29.9447 15.4804 29.7571 15.2929C29.5696 15.1054 29.3152 15 29.05 15H5.53001L10.1 10.43C10.2896 10.2417 10.3967 9.98578 10.3976 9.71854C10.3986 9.4513 10.2933 9.19463 10.105 9.005C9.91671 8.81537 9.66079 8.70831 9.39355 8.70737C9.12631 8.70644 8.86964 8.8117 8.68001 9L2.32001 15.37C2.15208 15.5387 2.0578 15.767 2.0578 16.005C2.0578 16.243 2.15208 16.4713 2.32001 16.64L8.68001 23C8.77297 23.0937 8.88358 23.1681 9.00543 23.2189C9.12729 23.2697 9.258 23.2958 9.39001 23.2958C9.52202 23.2958 9.65273 23.2697 9.77459 23.2189C9.89645 23.1681 10.007 23.0937 10.1 23Z"/>

</symbol>
<symbol id="arrow-right" viewBox="0 0 32 32">
<path d="M22 8.99999C21.9063 9.09295 21.8319 9.20356 21.7811 9.32541C21.7303 9.44727 21.7042 9.57798 21.7042 9.70999C21.7042 9.842 21.7303 9.97271 21.7811 10.0946C21.8319 10.2164 21.9063 10.327 22 10.42L26.6 15.02H3.06C2.79478 15.02 2.54043 15.1253 2.35289 15.3129C2.16535 15.5004 2.06 15.7548 2.06 16.02C2.06 16.2852 2.16535 16.5396 2.35289 16.7271C2.54043 16.9146 2.79478 17.02 3.06 17.02H26.58L22 21.59C21.8137 21.7774 21.7092 22.0308 21.7092 22.295C21.7092 22.5592 21.8137 22.8126 22 23C22.1874 23.1862 22.4408 23.2908 22.705 23.2908C22.9692 23.2908 23.2226 23.1862 23.41 23L29.77 16.64C29.8556 16.5579 29.9237 16.4593 29.9702 16.3501C30.0168 16.241 30.0408 16.1236 30.0408 16.005C30.0408 15.8864 30.0168 15.769 29.9702 15.6598C29.9237 15.5507 29.8556 15.4521 29.77 15.37L23.42 8.99999C23.327 8.90626 23.2164 8.83187 23.0946 8.7811C22.9727 8.73033 22.842 8.70419 22.71 8.70419C22.578 8.70419 22.4473 8.73033 22.3254 8.7811C22.2036 8.83187 22.093 8.90626 22 8.99999Z"/>

</symbol>
<symbol id="check" viewBox="0 0 50 50">
<path d="M45.293 19.562L45.992 12.879L39.853 10.148L37.123 4.00901L30.44 4.70701L25 0.765015L19.561 4.70701L12.879 4.00901L10.148 10.147L4.009 12.879L4.707 19.561L0.764999 25L4.707 30.438L4.008 37.121L10.147 39.852L12.877 45.991L19.56 45.293L25 49.235L30.439 45.293L37.121 45.991L39.852 39.853L45.991 37.121L45.293 30.439L49.235 25L45.293 19.562ZM43.851 35.885L38.337 38.338L35.884 43.851L29.885 43.225L25 46.765L20.115 43.225L14.115 43.851L11.662 38.337L6.149 35.885L6.775 29.886L3.235 25L6.776 20.115L6.15 14.115L11.664 11.662L14.117 6.14901L20.116 6.77501L25 3.23501L29.885 6.77501L35.885 6.14901L38.338 11.663L43.851 14.115L43.225 20.114L46.765 25L43.224 29.885L43.851 35.885Z"/>
<path d="M21 31.586L14.707 25.293L13.293 26.707L21 34.414L38.707 16.707L37.293 15.293L21 31.586Z"/>

</symbol>
<symbol id="circle" viewBox="0 0 50 50">
<circle cx="25" cy="25" r="25" stroke-width="4" fill="var(--color-1)"/>
<circle cx="25" cy="25" r="10" stroke-width="4" fill="var(--color-2)"/>

</symbol>
<symbol id="facebook" viewBox="0 0 19 32">
<path d="M12 32V18H18L19 12H12V9C12 7 13.002 6 15 6H18V0C17 0 14.76 0 13 0C8 0 6 3 6 8V12H0V18H6V32H12Z"/>

</symbol>
<symbol id="github" viewBox="0 0 60 60">
<path fill-rule="evenodd" clip-rule="evenodd" d="M2.99591 0H57.0041C58.6587 0 60 1.33731 60 2.99594V57.0041C60 58.6587 58.6627 60 57.0041 60H2.99591C1.3413 60 0 58.6627 0 57.0041V2.99594C0 1.34133 1.33728 0 2.99591 0Z" fill="var(--color-2)"/>
<path fill-rule="evenodd" clip-rule="evenodd" d="M25.4253 47.5169C25.4253 47.0672 25.4094 45.8772 25.4003 44.2968C20.2652 45.4403 19.1817 41.7589 19.1817 41.7589C18.3419 39.5719 17.1315 38.9897 17.1315 38.9897C15.4553 37.8149 17.2584 37.8393 17.2584 37.8393C19.1114 37.9729 20.0861 39.7904 20.0861 39.7904C21.7329 42.6828 24.4064 41.8483 25.4593 41.3638C25.627 40.1401 26.1042 39.3058 26.6312 38.8328C22.5319 38.3552 18.2217 36.7307 18.2217 29.4771C18.2217 27.411 18.9414 25.7213 20.1224 24.3978C19.9331 23.919 19.2984 21.9946 20.3037 19.3882C20.3037 19.3882 21.8541 18.8792 25.3799 21.3288C26.8522 20.9093 28.432 20.6978 30.0028 20.6908C31.5702 20.6978 33.149 20.9093 34.6246 21.3288C38.1481 18.8792 39.6963 19.3882 39.6963 19.3882C40.7038 21.9935 40.0703 23.9178 39.8799 24.3978C41.0631 25.7213 41.7771 27.411 41.7771 29.4771C41.7771 36.7493 37.4602 38.3494 33.3473 38.8177C34.0114 39.4023 34.6008 40.5573 34.6008 42.3237C34.6008 44.8546 34.577 46.8964 34.577 47.5169C34.577 48.0236 34.9102 48.6115 35.8475 48.4268C43.1768 45.919 48.4615 38.8282 48.4615 30.4684C48.4615 20.0134 40.195 11.5385 29.9995 11.5385C19.8051 11.5385 11.5385 20.0134 11.5385 30.4684C11.5396 38.8305 16.8289 45.926 24.165 48.4291C25.0875 48.6022 25.4253 48.0178 25.4253 47.5169Z" fill="var(--color-1)"/>

</symbol>
<symbol id="hashtag" viewBox="0 0 30 28">
<path d="M2.78294 13.0195C2.93451 12.6781 3.23613 12.4243 3.63244 12.3045L6.78236 11.3523L4.69561 7.60417C4.49955 7.25217 4.47487 6.85218 4.62843 6.50736C4.78072 6.16674 5.08234 5.91296 5.47865 5.79315C6.26153 5.55649 7.17491 5.91067 7.55881 6.60091L8.12577 7.61921C8.14181 7.6442 8.16218 7.66637 8.17661 7.69231L9.71938 10.4645L15.0216 8.86162L12.9348 5.11347C12.7388 4.76147 12.7141 4.36148 12.8677 4.01666C13.0199 3.67604 13.3216 3.42226 13.7179 3.30245C14.5008 3.06579 15.4141 3.41997 15.798 4.11021L16.3883 5.17043C16.395 5.18184 16.4046 5.19152 16.411 5.20307L17.9542 7.9751L21.3839 6.93829C22.1668 6.70163 23.0807 7.05567 23.4643 7.74503C23.6606 8.09791 23.6846 8.49716 23.531 8.84198C23.379 9.18348 23.0771 9.43638 22.6813 9.55605L19.3882 10.5515L21.6219 14.5638L25.0516 13.527C25.8345 13.2904 26.7484 13.6444 27.1323 14.3346C27.3281 14.6858 27.3527 15.0857 27.1994 15.4296C27.0474 15.7711 26.7453 16.025 26.349 16.1448L23.0559 17.1403L25.1539 20.9086C25.3499 21.2606 25.3746 21.6606 25.221 22.0054C25.0692 22.3459 24.7671 22.5998 24.3713 22.7194C23.5884 22.9561 22.6746 22.6021 22.2906 21.9118L20.127 18.0256L14.8215 19.6295L16.9194 23.3978C17.1155 23.7498 17.1402 24.1498 16.9866 24.4946C16.8343 24.8352 16.5327 25.089 16.1364 25.2088C15.3535 25.4455 14.4401 25.0913 14.0562 24.4011L11.8926 20.5149L8.59792 21.5109C7.81504 21.7475 6.9012 21.3935 6.51756 20.7041C6.31726 20.3448 6.29225 19.9554 6.44686 19.6074C6.59823 19.2671 6.90151 19.0138 7.30014 18.8932L10.4582 17.9386L8.22494 13.9262L4.93024 14.9221C4.14736 15.1588 3.23352 14.8048 2.84962 14.1145C2.6538 13.7634 2.62913 13.3634 2.78294 13.0195ZM18.6926 15.4493L16.4593 11.4369L11.1538 13.0408L13.3875 17.0531L18.6926 15.4493Z"/>

</symbol>
<symbol id="menu" viewBox="0 0 32 32">
<path d="M16 31C13.0333 31 10.1332 30.1203 7.66645 28.4721C5.19971 26.8238 3.27712 24.4812 2.14181 21.7403C1.00649 18.9994 0.709442 15.9834 1.28822 13.0737C1.867 10.1639 3.29561 7.49119 5.3934 5.3934C7.49118 3.29562 10.1639 1.86701 13.0736 1.28823C15.9834 0.709449 18.9994 1.0065 21.7403 2.14181C24.4811 3.27713 26.8238 5.19972 28.472 7.66645C30.1203 10.1332 31 13.0333 31 16C31 19.9783 29.4196 23.7936 26.6066 26.6066C23.7936 29.4197 19.9782 31 16 31ZM16 3.00001C13.4288 3.00001 10.9154 3.76244 8.77759 5.1909C6.63975 6.61936 4.9735 8.64968 3.98957 11.0251C3.00563 13.4006 2.74818 16.0144 3.24979 18.5362C3.7514 21.0579 4.98953 23.3743 6.80761 25.1924C8.62569 27.0105 10.9421 28.2486 13.4638 28.7502C15.9856 29.2518 18.5994 28.9944 20.9749 28.0104C23.3503 27.0265 25.3806 25.3603 26.8091 23.2224C28.2376 21.0846 29 18.5712 29 16C29 12.5522 27.6304 9.24559 25.1924 6.80762C22.7544 4.36965 19.4478 3.00001 16 3.00001V3.00001Z"/>
<path d="M21 17H11C10.7348 17 10.4804 16.8946 10.2929 16.7071C10.1054 16.5196 10 16.2652 10 16C10 15.7348 10.1054 15.4804 10.2929 15.2929C10.4804 15.1054 10.7348 15 11 15H21C21.2652 15 21.5196 15.1054 21.7071 15.2929C21.8946 15.4804 22 15.7348 22 16C22 16.2652 21.8946 16.5196 21.7071 16.7071C21.5196 16.8946 21.2652 17 21 17Z"/>
<path d="M21 12H11C10.7348 12 10.4804 11.8946 10.2929 11.7071C10.1054 11.5196 10 11.2652 10 11C10 10.7348 10.1054 10.4804 10.2929 10.2929C10.4804 10.1054 10.7348 10 11 10H21C21.2652 10 21.5196 10.1054 21.7071 10.2929C21.8946 10.4804 22 10.7348 22 11C22 11.2652 21.8946 11.5196 21.7071 11.7071C21.5196 11.8946 21.2652 12 21 12Z"/>
<path d="M21 22H11C10.7348 22 10.4804 21.8946 10.2929 21.7071C10.1054 21.5196 10 21.2652 10 21C10 20.7348 10.1054 20.4804 10.2929 20.2929C10.4804 20.1054 10.7348 20 11 20H21C21.2652 20 21.5196 20.1054 21.7071 20.2929C21.8946 20.4804 22 20.7348 22 21C22 21.2652 21.8946 21.5196 21.7071 21.7071C21.5196 21.8946 21.2652 22 21 22Z"/>

</symbol>
<symbol id="minus" viewBox="0 0 512 512">
<path d="M384 265H128V248H384V265Z"/>

</symbol>
<symbol id="plus" viewBox="0 0 16 16">
<path d="M8 16C7.44727 16 7 15.5527 7 15V1C7 0.447266 7.44727 0 8 0C8.55273 0 9 0.447266 9 1V15C9 15.5527 8.55273 16 8 16Z"/>
<path d="M15 9H1C0.447266 9 0 8.55273 0 8C0 7.44727 0.447266 7 1 7H15C15.5527 7 16 7.44727 16 8C16 8.55273 15.5527 9 15 9Z"/>

</symbol>
<symbol id="square" viewBox="0 0 242 257">
<path d="M121 0L242 128.5L121 257L0 128.5L121 0Z" fill="var(--color-1)"/>
<path d="M121 54L185 129L121 204L57 129L121 54Z" fill="var(--color-2)"/>

</symbol>
<symbol id="star" viewBox="0 0 20 21">
<path fill-rule="evenodd" clip-rule="evenodd" d="M10 15.773L16.18 19.5L14.545 12.471L20 7.744L12.809 7.127L10 0.5L7.191 7.127L0 7.744L5.455 12.471L3.82 19.5L10 15.773Z"/>

</symbol>
<symbol id="twitter" viewBox="0 0 32 32">
<path d="M31.993 6.077C30.816 6.6 29.552 6.953 28.223 7.11C29.578 6.298 30.619 5.012 31.11 3.48C29.841 4.231 28.437 4.779 26.942 5.072C25.744 3.797 24.038 3 22.149 3C18.524 3 15.587 5.938 15.587 9.563C15.587 10.077 15.644 10.579 15.756 11.059C10.301 10.785 5.46498 8.172 2.22698 4.201C1.66298 5.171 1.33898 6.298 1.33898 7.501C1.33898 9.779 2.49798 11.787 4.25798 12.965C3.18298 12.93 2.17098 12.636 1.28598 12.144C1.28498 12.171 1.28498 12.2 1.28498 12.226C1.28498 15.407 3.54698 18.06 6.54998 18.663C5.99998 18.812 5.41998 18.893 4.82098 18.893C4.39698 18.893 3.98698 18.852 3.58698 18.776C4.42098 21.382 6.84598 23.28 9.71698 23.334C7.47198 25.094 4.64198 26.145 1.56698 26.145C1.03698 26.145 0.513977 26.114 0.000976562 26.053C2.90498 27.913 6.35498 29 10.062 29C22.134 29 28.737 18.999 28.737 10.325C28.737 10.041 28.729 9.757 28.717 9.475C30 8.55 31.112 7.395 31.993 6.077Z"/>

</symbol>
<symbol id="x" viewBox="0 0 100 100">
<path d="M60.4688 39.5312L39.5312 60.4688" stroke="var(--color-1)" stroke-width="10" stroke-miterlimit="10" stroke-linecap="round" stroke-linejoin="round"/>
<path d="M60.4688 60.4688L39.5312 39.5312" stroke="var(--color-1)" stroke-width="10" stroke-miterlimit="10" stroke-linecap="round" stroke-linejoin="round"/>

</symbol></svg>