<svg viewBox="0 0 32 32" xmlns="http://www.w3.org/2000/svg">
<path d="M10.1 23C10.2863 22.8126 10.3908 22.5592 10.3908 22.295C10.3908 22.0308 10.2863 21.7774 10.1 21.59L5.50001 17H29.05C29.3152 17 29.5696 16.8946 29.7571 16.7071C29.9447 16.5196 30.05 16.2652 30.05 16C30.05 15.7348 29.9447 15.4804 29.7571 15.2929C29.5696 15.1054 29.3152 15 29.05 15H5.53001L10.1 10.43C10.2896 10.2417 10.3967 9.98578 10.3976 9.71854C10.3986 9.4513 10.2933 9.19463 10.105 9.005C9.91671 8.81537 9.66079 8.70831 9.39355 8.70737C9.12631 8.70644 8.86964 8.8117 8.68001 9L2.32001 15.37C2.15208 15.5387 2.0578 15.767 2.0578 16.005C2.0578 16.243 2.15208 16.4713 2.32001 16.64L8.68001 23C8.77297 23.0937 8.88358 23.1681 9.00543 23.2189C9.12729 23.2697 9.258 23.2958 9.39001 23.2958C9.52202 23.2958 9.65273 23.2697 9.77459 23.2189C9.89645 23.1681 10.007 23.0937 10.1 23Z"/>
</svg>
