<svg viewBox="0 0 32 32" xmlns="http://www.w3.org/2000/svg">
<path d="M22 8.99999C21.9063 9.09295 21.8319 9.20356 21.7811 9.32541C21.7303 9.44727 21.7042 9.57798 21.7042 9.70999C21.7042 9.842 21.7303 9.97271 21.7811 10.0946C21.8319 10.2164 21.9063 10.327 22 10.42L26.6 15.02H3.06C2.79478 15.02 2.54043 15.1253 2.35289 15.3129C2.16535 15.5004 2.06 15.7548 2.06 16.02C2.06 16.2852 2.16535 16.5396 2.35289 16.7271C2.54043 16.9146 2.79478 17.02 3.06 17.02H26.58L22 21.59C21.8137 21.7774 21.7092 22.0308 21.7092 22.295C21.7092 22.5592 21.8137 22.8126 22 23C22.1874 23.1862 22.4408 23.2908 22.705 23.2908C22.9692 23.2908 23.2226 23.1862 23.41 23L29.77 16.64C29.8556 16.5579 29.9237 16.4593 29.9702 16.3501C30.0168 16.241 30.0408 16.1236 30.0408 16.005C30.0408 15.8864 30.0168 15.769 29.9702 15.6598C29.9237 15.5507 29.8556 15.4521 29.77 15.37L23.42 8.99999C23.327 8.90626 23.2164 8.83187 23.0946 8.7811C22.9727 8.73033 22.842 8.70419 22.71 8.70419C22.578 8.70419 22.4473 8.73033 22.3254 8.7811C22.2036 8.83187 22.093 8.90626 22 8.99999Z"/>
</svg>
