<svg viewBox="0 0 50 50" xmlns="http://www.w3.org/2000/svg">
<path d="M45.293 19.562L45.992 12.879L39.853 10.148L37.123 4.00901L30.44 4.70701L25 0.765015L19.561 4.70701L12.879 4.00901L10.148 10.147L4.009 12.879L4.707 19.561L0.764999 25L4.707 30.438L4.008 37.121L10.147 39.852L12.877 45.991L19.56 45.293L25 49.235L30.439 45.293L37.121 45.991L39.852 39.853L45.991 37.121L45.293 30.439L49.235 25L45.293 19.562ZM43.851 35.885L38.337 38.338L35.884 43.851L29.885 43.225L25 46.765L20.115 43.225L14.115 43.851L11.662 38.337L6.149 35.885L6.775 29.886L3.235 25L6.776 20.115L6.15 14.115L11.664 11.662L14.117 6.14901L20.116 6.77501L25 3.23501L29.885 6.77501L35.885 6.14901L38.338 11.663L43.851 14.115L43.225 20.114L46.765 25L43.224 29.885L43.851 35.885Z"/>
<path d="M21 31.586L14.707 25.293L13.293 26.707L21 34.414L38.707 16.707L37.293 15.293L21 31.586Z"/>
</svg>
