<svg viewBox="0 0 60 60" xmlns="http://www.w3.org/2000/svg">
<path fill-rule="evenodd" clip-rule="evenodd" d="M2.99591 0H57.0041C58.6587 0 60 1.33731 60 2.99594V57.0041C60 58.6587 58.6627 60 57.0041 60H2.99591C1.3413 60 0 58.6627 0 57.0041V2.99594C0 1.34133 1.33728 0 2.99591 0Z" fill="var(--color-2)"/>
<path fill-rule="evenodd" clip-rule="evenodd" d="M25.4253 47.5169C25.4253 47.0672 25.4094 45.8772 25.4003 44.2968C20.2652 45.4403 19.1817 41.7589 19.1817 41.7589C18.3419 39.5719 17.1315 38.9897 17.1315 38.9897C15.4553 37.8149 17.2584 37.8393 17.2584 37.8393C19.1114 37.9729 20.0861 39.7904 20.0861 39.7904C21.7329 42.6828 24.4064 41.8483 25.4593 41.3638C25.627 40.1401 26.1042 39.3058 26.6312 38.8328C22.5319 38.3552 18.2217 36.7307 18.2217 29.4771C18.2217 27.411 18.9414 25.7213 20.1224 24.3978C19.9331 23.919 19.2984 21.9946 20.3037 19.3882C20.3037 19.3882 21.8541 18.8792 25.3799 21.3288C26.8522 20.9093 28.432 20.6978 30.0028 20.6908C31.5702 20.6978 33.149 20.9093 34.6246 21.3288C38.1481 18.8792 39.6963 19.3882 39.6963 19.3882C40.7038 21.9935 40.0703 23.9178 39.8799 24.3978C41.0631 25.7213 41.7771 27.411 41.7771 29.4771C41.7771 36.7493 37.4602 38.3494 33.3473 38.8177C34.0114 39.4023 34.6008 40.5573 34.6008 42.3237C34.6008 44.8546 34.577 46.8964 34.577 47.5169C34.577 48.0236 34.9102 48.6115 35.8475 48.4268C43.1768 45.919 48.4615 38.8282 48.4615 30.4684C48.4615 20.0134 40.195 11.5385 29.9995 11.5385C19.8051 11.5385 11.5385 20.0134 11.5385 30.4684C11.5396 38.8305 16.8289 45.926 24.165 48.4291C25.0875 48.6022 25.4253 48.0178 25.4253 47.5169Z" fill="var(--color-1)"/>
</svg>
