<svg viewBox="0 0 30 28" xmlns="http://www.w3.org/2000/svg">
<path d="M2.78294 13.0195C2.93451 12.6781 3.23613 12.4243 3.63244 12.3045L6.78236 11.3523L4.69561 7.60417C4.49955 7.25217 4.47487 6.85218 4.62843 6.50736C4.78072 6.16674 5.08234 5.91296 5.47865 5.79315C6.26153 5.55649 7.17491 5.91067 7.55881 6.60091L8.12577 7.61921C8.14181 7.6442 8.16218 7.66637 8.17661 7.69231L9.71938 10.4645L15.0216 8.86162L12.9348 5.11347C12.7388 4.76147 12.7141 4.36148 12.8677 4.01666C13.0199 3.67604 13.3216 3.42226 13.7179 3.30245C14.5008 3.06579 15.4141 3.41997 15.798 4.11021L16.3883 5.17043C16.395 5.18184 16.4046 5.19152 16.411 5.20307L17.9542 7.9751L21.3839 6.93829C22.1668 6.70163 23.0807 7.05567 23.4643 7.74503C23.6606 8.09791 23.6846 8.49716 23.531 8.84198C23.379 9.18348 23.0771 9.43638 22.6813 9.55605L19.3882 10.5515L21.6219 14.5638L25.0516 13.527C25.8345 13.2904 26.7484 13.6444 27.1323 14.3346C27.3281 14.6858 27.3527 15.0857 27.1994 15.4296C27.0474 15.7711 26.7453 16.025 26.349 16.1448L23.0559 17.1403L25.1539 20.9086C25.3499 21.2606 25.3746 21.6606 25.221 22.0054C25.0692 22.3459 24.7671 22.5998 24.3713 22.7194C23.5884 22.9561 22.6746 22.6021 22.2906 21.9118L20.127 18.0256L14.8215 19.6295L16.9194 23.3978C17.1155 23.7498 17.1402 24.1498 16.9866 24.4946C16.8343 24.8352 16.5327 25.089 16.1364 25.2088C15.3535 25.4455 14.4401 25.0913 14.0562 24.4011L11.8926 20.5149L8.59792 21.5109C7.81504 21.7475 6.9012 21.3935 6.51756 20.7041C6.31726 20.3448 6.29225 19.9554 6.44686 19.6074C6.59823 19.2671 6.90151 19.0138 7.30014 18.8932L10.4582 17.9386L8.22494 13.9262L4.93024 14.9221C4.14736 15.1588 3.23352 14.8048 2.84962 14.1145C2.6538 13.7634 2.62913 13.3634 2.78294 13.0195ZM18.6926 15.4493L16.4593 11.4369L11.1538 13.0408L13.3875 17.0531L18.6926 15.4493Z"/>
</svg>
